<svg width="25" height="25" viewBox="0 0 25 25" fill="none" xmlns="http://www.w3.org/2000/svg">
<g clip-path="url(#clip0_3001_1223)">
<path d="M23.4062 6.6664C23.2828 6.17355 23.0316 5.72199 22.6778 5.35732C22.3241 4.99265 21.8804 4.72778 21.3916 4.58947C19.6054 4.15332 12.4608 4.15332 12.4608 4.15332C12.4608 4.15332 5.31616 4.15332 3.53001 4.63101C3.04115 4.76932 2.59745 5.03419 2.24372 5.39886C1.88999 5.76353 1.63875 6.21509 1.5154 6.70794C1.1885 8.52063 1.0286 10.3595 1.0377 12.2014C1.02605 14.0572 1.18596 15.9101 1.5154 17.7364C1.65139 18.2139 1.90825 18.6483 2.26116 18.9976C2.61407 19.3469 3.05109 19.5992 3.53001 19.7302C5.31616 20.2079 12.4608 20.2079 12.4608 20.2079C12.4608 20.2079 19.6054 20.2079 21.3916 19.7302C21.8804 19.5919 22.3241 19.3271 22.6778 18.9624C23.0316 18.5977 23.2828 18.1462 23.4062 17.6533C23.7305 15.8543 23.8904 14.0294 23.8839 12.2014C23.8955 10.3456 23.7356 8.49274 23.4062 6.6664Z" stroke="currentColor" stroke-linecap="round" stroke-linejoin="round"/>
<path d="M10.1242 15.5972L16.0954 12.2014L10.1242 8.80563V15.5972Z" stroke="currentColor" stroke-linecap="round" stroke-linejoin="round"/>
</g>
<defs>
<clipPath id="clip0_3001_1223">
<rect width="24.9231" height="24.9231" fill="currentColor"/>
</clipPath>
</defs>
</svg>
